<svg fill="none" height="32" viewBox="0 0 32 32" width="32" xmlns="http://www.w3.org/2000/svg"><g fill="#212121"><path d="m3 15.9989c0-3.6703 1.10595-6.90979 3.23462-9.22131 2.11626-2.29803 5.33348-3.77759 9.76428-3.77759 4.4307 0 7.648 1.47956 9.7642 3.77759 2.1287 2.31152 3.2347 5.55101 3.2347 9.22131 0 .4202-.0145.8349-.0434 1.2431.3287.1788.6017.4472.7862.7723.418.0502.7964.2292 1.0942.4963.1089-.8196.163-1.659.163-2.5117 0-4.0611-1.2263-7.82105-3.7635-10.57614-2.5495-2.76857-6.3317-4.42276-11.2354-4.42276s-8.6859 1.65419-11.23548 4.42276c-2.53716 2.75509-3.76342 6.51504-3.76342 10.57614 0 .8533.05414 1.6933.1632 2.5135.29811-.2681.67722-.4478 1.09615-.4981.18412-.3244.45633-.5923.78411-.7712-.02893-.4086-.04346-.8236-.04346-1.2442z"/><path d="m12.668 28.6862c-.4683.6818-1.11 1.2353-1.8615 1.5968 1.5578.466 3.2908.7148 5.1924.7148 1.9022 0 3.6356-.2489 5.1938-.7153-.7513-.3615-1.3928-.915-1.861-1.5967-1.0236.2036-2.1338.312-3.3328.312-1.1983 0-2.3079-.1083-3.3309-.3116z"/><path d="m7.88777 13.3378c-.02959.0198-.05882.0406-.08765.0622-.71562.5367-.96915 1.4609-.68771 2.2623-.31806.2133-.70071.3377-1.11241.3377-1.10457 0-2-.8954-2-2s.89543-2 2-2c.87248 0 1.61448.5587 1.88777 1.3378z"/><path d="m24.8878 15.6625c.2815-.8015.028-1.7258-.6877-2.2625-.0289-.0217-.0582-.0424-.0878-.0623.2733-.7791 1.0153-1.3377 1.8877-1.3377 1.1046 0 2 .8954 2 2s-.8954 2-2 2c-.4116 0-.7942-.1243-1.1122-.3375z"/><path d="m9.34896 9.41252c-.20925.22799-.31932.53107-.3674.77838-.10542.5421-.63036.8961-1.17249.7907s-.89616-.6303-.79074-1.17247c.08863-.45584.30993-1.15276.85718-1.749.57718-.62883 1.44013-1.06013 2.62439-1.06013 1.1956 0 2.0621.45218 2.6358 1.08196.5442.59744.7705 1.29202.8495 1.74695.0945.54409-.27 1.06189-.8142 1.15639-.5441.0944-1.0618-.2701-1.1563-.8142-.0343-.19742-.1394-.50284-.3575-.74232-.1887-.20713-.5155-.42878-1.1573-.42878-.65292 0-.97161.21714-1.15094.41252z"/><path d="m20.3492 9.41252c-.2093.22799-.3193.53107-.3674.77838-.1054.5421-.6304.8961-1.1725.7907s-.8961-.6303-.7907-1.17247c.0886-.45584.3099-1.15276.8572-1.749.5771-.62883 1.4401-1.06013 2.6244-1.06013 1.1955 0 2.0621.45218 2.6357 1.08196.5443.59744.7705 1.29202.8495 1.74695.0945.54409-.27 1.06189-.8141 1.15639-.5442.0944-1.0619-.2701-1.1564-.8142-.0342-.19742-.1393-.50284-.3575-.74232-.1887-.20713-.5155-.42878-1.1572-.42878-.653 0-.9717.21714-1.151.41252z"/><path d="m8.40006 14.2c.44183-.3314 1.06863-.2418 1.4.2.29804.3973 1.99214 2.1 6.20004 2.1 4.2078 0 5.902-1.7027 6.2-2.1.3313-.4418.9581-.5314 1.4-.2.4418.3314.5313.9582.2 1.4-.702.936-3.0079 2.9-7.8 2.9-4.7922 0-7.09804-1.964-7.80004-2.9-.33137-.4418-.24183-1.0686.2-1.4z"/><path d="m28.9903 19.1395c.039-.2778-.0384-.5703-.2376-.798-.3637-.4156-.9955-.4577-1.4111-.0941l-3.7624 3.2922-.0791-.0396c0-.4129.0379-.7878.0719-1.125.0897-.8876.1529-1.5126-.572-1.875-1.3379-.6688-1.9517 1.5635-2.3633 3.7433-.0936.4958-.3196.9542-.5718 1.3912-1.33 2.3039-.0658 4.6148.9352 5.3655 1.7888 1.3417 3.5 1 5 0 .9075-.6049 2.6345-1.8198 3.9272-2.7366.5624-.3989.629-1.2072.1415-1.6947-.3396-.3396-.8584-.4238-1.288-.209l-.1256.0628 1.9851-1.6543c.4243-.3535.4816-.9841.128-1.4084-.2303-.2763-.5781-.397-.9099-.3498l.2925-.2507c.4193-.3595.4679-.9908.1085-1.4101-.3211-.3745-.859-.4533-1.2691-.2097z"/><path d="m3.01052 19.1395c-.03901-.2778.03844-.5703.23766-.798.36368-.4156.99545-.4577 1.41108-.0941l3.76242 3.2922.07908-.0396c0-.4129-.03789-.7879-.07195-1.125-.08967-.8876-.15282-1.5126.572-1.875 1.33799-.6688 1.95179 1.5635 2.36329 3.7433.0936.4958.3196.9542.5719 1.3912 1.3299 2.3039.0658 4.6148-.9352 5.3655-1.78889 1.3417-3.50008 1-5.00008 0-.90743-.6049-2.63449-1.8198-3.92717-2.7366-.56239-.3989-.62901-1.2072-.14148-1.6947.3396-.3396.85839-.4238 1.28795-.209l.12565.0628-1.9851-1.6543c-.424274-.3535-.481598-.9841-.12803-1.4084.23029-.2763.57811-.397.9099-.3498l-.29247-.2507c-.41933-.3595-.46789-.9908-.10847-1.4101.32103-.3745.85897-.4533 1.26902-.2097z"/></g></svg>